<svg height="64px" viewBox="0 -10 512 512" width="64px" xmlns="http://www.w3.org/2000/svg"><path d="m489.402344 165.359375c-12.96875-13.386719-29.878906-21.722656-48.183594-23.875-2-19.003906-7.675781-37.132813-16.90625-53.976563-1.988281-3.632812-6.542969-4.964843-10.179688-2.972656-3.632812 1.988282-4.964843 6.546875-2.972656 10.179688 9.210938 16.808594 14.46875 35.046875 15.628906 54.210937.230469 3.859375 3.363282 6.910157 7.226563 7.042969 16.949219.582031 32.792969 7.625 44.613281 19.828125 11.847656 12.226563 18.371094 28.34375 18.371094 45.378906 0 35.988281-29.277344 65.265625-65.265625 65.265625h-140.765625c17.726562-13.46875 29.195312-34.765625 29.195312-58.695312 0-19.527344-7.558593-37.925782-21.289062-51.804688-12.519531-12.660156-28.851562-20.234375-46.433594-21.636718-7.691406-17.914063-20.125-33.261719-36.191406-44.597657-9.902344-6.988281-20.785156-12.140625-32.253906-15.347656 10.378906-18.808594 25.265625-34.789063 43.4375-46.492187 20.875-13.441407 45.09375-20.546876 70.042968-20.546876 36.175782 0 70.964844 15.292969 95.449219 41.957032 2.800781 3.054687 7.542969 3.253906 10.59375.453125s3.253907-7.542969.453125-10.59375c-27.316406-29.753907-66.132812-46.816407-106.496094-46.816407-20.371093 0-40.300781 4.265626-58.664062 12.425782-21.1875-17.808594-48.765625-26.667969-76.449219-24.394532-19.546875 1.601563-38.1875 8.582032-53.902343 20.1875-3.332032 2.457032-4.039063 7.15625-1.578126 10.488282 2.460938 3.332031 7.15625 4.039062 10.488282 1.578125 13.472656-9.945313 29.453125-15.929688 46.21875-17.304688 21.605468-1.777343 43.140625 4.363281 60.539062 16.996094-1.621094.957031-3.230468 1.9375-4.816406 2.960937-21.597656 13.910157-39.042969 33.234376-50.667969 56.03125-4.332031-.535156-8.71875-.820312-13.140625-.820312-28.511718 0-54.546875 11.40625-73.621094 29.988281-.425781-2.550781-.757812-5.121093-.96875-7.707031-1.691406-20.632812 3.8125-41.386719 15.5-58.433594 2.34375-3.417968 1.472657-8.085937-1.941406-10.429687-3.417968-2.339844-8.085937-1.46875-10.429687 1.945312-13.628907 19.886719-20.050781 44.085938-18.078125 68.144531.574218 6.988282 1.84375 13.917969 3.765625 20.605469-10.023438 13.964844-16.730469 30.492188-18.925781 48.457031-28.972657 4.195313-50.804688 28.890626-50.804688 58.882813 0 32.820313 26.703125 59.519531 59.519531 59.519531h122.390625l-43.105468 43.101563c-5.292969 5.296875-6.863282 13.191406-4 20.109375 2.867187 6.917968 9.558593 11.390625 17.046874 11.390625h46.136719l-83.835937 83.835937c-6.855469 6.855469-7.363282 17.265625-1.210938 24.757813 3.683594 4.488281 8.863282 6.835937 14.15625 6.835937 3.542969 0 7.132813-1.050781 10.363282-3.210937l108.371093-72.523438c3.445313-2.300781 4.367188-6.960937 2.0625-10.402343-2.300781-3.441407-6.960937-4.367188-10.402343-2.0625l-108.375 72.523437c-2.148438 1.4375-3.679688.425781-4.585938-.679687-.90625-1.101563-1.601562-2.800782.226562-4.632813l96.640626-96.636719c2.144531-2.144531 2.789062-5.371094 1.625-8.175781-1.160157-2.800781-3.894532-4.628906-6.929688-4.628906h-64.242188c-2.082031 0-2.921874-1.488281-3.1875-2.128907-.265624-.644531-.722656-2.289062.75-3.761718l53.664063-53.664063c.011719-.015625.027344-.03125.039063-.046875h71.121093l-23.921875 23.921875c-2.144531 2.144531-2.785156 5.371094-1.625 8.175781 1.160156 2.800782 3.898438 4.628907 6.929688 4.628907h67.800781c2.226563 0 3.023437 1.535156 3.300781 2.449219.277344.914062.46875 2.632812-1.382812 3.871093l-60.175782 40.269531c-3.441406 2.300782-4.367187 6.960938-2.0625 10.402344 1.445313 2.164063 3.820313 3.332032 6.242188 3.332032 1.433594 0 2.882812-.414063 4.164062-1.269532l60.175782-40.269531c6.90625-4.621094 9.808594-12.746094 7.394531-20.695313-2.417969-7.953124-9.347656-13.089843-17.65625-13.089843h-49.695313l21.679688-21.679688c.015625-.015625.027344-.03125.042969-.046875h136.285156c44.257813 0 80.265625-36.003906 80.265625-80.265625 0-20.949219-8.023438-40.773437-22.597656-55.816406zm-429.882813 121.082031c-24.546875 0-44.519531-19.96875-44.519531-44.519531 0-24.117187 18.871094-43.652344 42.960938-44.480469 3.867187-.132812 6.996093-3.183594 7.230468-7.042968 2.882813-47.625 42.550782-84.929688 90.3125-84.929688 37.527344 0 71.585938 23.601562 84.757813 58.734375 1.085937 2.898437 3.835937 4.832031 6.929687 4.867187 31.96875.386719 57.976563 26.707032 57.976563 58.675782 0 32.367187-26.332031 58.695312-58.695313 58.695312zm0 0"/><path d="m389.441406 109.011719c-3.800781 1.644531-5.550781 6.058593-3.90625 9.859375 2.160156 4.996094 3.902344 10.210937 5.175782 15.503906.824218 3.4375 3.898437 5.746094 7.285156 5.746094.578125 0 1.167968-.066406 1.757812-.207032 4.027344-.96875 6.507813-5.019531 5.539063-9.046874-1.472657-6.125-3.488281-12.164063-5.992188-17.949219-1.644531-3.800781-6.058593-5.550781-9.859375-3.90625zm0 0"/><path d="m297.476562 45.988281c-4.140624 0-7.5 3.359375-7.5 7.5 0 4.144531 3.359376 7.5 7.5 7.5 26.335938 0 50.914063 10.5 69.210938 29.5625 1.472656 1.535157 3.441406 2.308594 5.414062 2.308594 1.867188 0 3.738282-.695313 5.191407-2.089844 2.988281-2.871093 3.085937-7.617187.21875-10.605469-21.152344-22.039062-49.574219-34.175781-80.035157-34.175781zm0 0"/></svg>