<?xml version="1.0" encoding="iso-8859-1"?>
<!-- Generator: Adobe Illustrator 19.0.0, SVG Export Plug-In . SVG Version: 6.00 Build 0)  -->
<svg version="1.1" id="Layer_1" class="icon" xmlns="http://www.w3.org/2000/svg" xmlns:xlink="http://www.w3.org/1999/xlink" x="0px" y="0px" height="100%" width="100%"
	 viewBox="0 0 512 512" style="enable-background:new 0 0 512 512;" xml:space="preserve">
<g>
	<g>
		<g>
			<path d="M406.832,256c0-50.055-24.757-96.743-66.226-124.888c-3.694-2.507-8.721-1.545-11.23,2.149
				c-2.507,3.695-1.545,8.722,2.149,11.229c37.03,25.133,59.138,66.819,59.138,111.51c0,74.253-60.41,134.662-134.662,134.662
				c-74.255,0-134.666-60.41-134.666-134.662c0-74.255,60.411-134.666,134.666-134.666c19.481,0,38.27,4.067,55.846,12.088
				c4.065,1.855,8.858,0.064,10.712-3.998c1.854-4.062,0.064-8.857-3.998-10.711c-19.698-8.99-40.747-13.548-62.56-13.548
				c-83.17,0-150.834,67.664-150.834,150.834c0,83.169,67.664,150.831,150.834,150.831C339.169,406.831,406.832,339.168,406.832,256
				z"/>
			<path d="M336.11,309.038c-3.42-2.872-8.52-2.43-11.389,0.99c-0.703,0.836-1.421,1.659-2.154,2.467
				c-3,3.307-2.751,8.419,0.556,11.419c1.548,1.403,3.491,2.096,5.429,2.096c2.201,0,4.395-0.894,5.989-2.652
				c0.863-0.952,1.724-1.938,2.558-2.931C339.972,317.009,339.529,311.91,336.11,309.038z"/>
			<path d="M342.735,303.213c3.084,0,6.032-1.776,7.379-4.772c5.994-13.336,9.033-27.566,9.033-42.298
				c0-21.162-6.356-41.507-18.381-58.83c-11.744-16.921-28.047-29.832-47.147-37.336c-4.159-1.632-8.848,0.412-10.481,4.568
				c-1.633,4.155,0.412,8.847,4.567,10.48c33.577,13.193,55.273,45.033,55.273,81.118c0,12.43-2.561,24.432-7.612,35.67
				c-1.83,4.072-0.012,8.857,4.06,10.687C340.502,302.984,341.627,303.213,342.735,303.213z"/>
			<path d="M256.001,73.671c4.466,0,8.084-3.62,8.084-8.084V8.084c0-4.465-3.619-8.084-8.084-8.084c-4.465,0-8.084,3.62-8.084,8.084
				v57.502C247.917,70.051,251.536,73.671,256.001,73.671z"/>
			<path d="M256.001,438.328c-4.465,0-8.084,3.62-8.084,8.084v57.503c0,4.465,3.62,8.084,8.084,8.084
				c4.466,0,8.084-3.62,8.084-8.084v-57.503C264.085,441.948,260.467,438.328,256.001,438.328z"/>
			<path d="M115.641,127.074c1.578,1.578,3.648,2.367,5.716,2.367c2.07,0,4.138-0.79,5.716-2.367c3.157-3.157,3.157-8.276,0-11.433
				l-40.66-40.659c-3.156-3.157-8.275-3.157-11.432,0c-3.157,3.156-3.157,8.275,0,11.432L115.641,127.074z"/>
			<path d="M396.359,384.925c-3.157-3.157-8.275-3.157-11.433,0c-3.157,3.158-3.157,8.276,0,11.433l40.66,40.66
				c1.579,1.579,3.649,2.368,5.717,2.368s4.138-0.79,5.716-2.368c3.157-3.158,3.157-8.276,0-11.433L396.359,384.925z"/>
			<path d="M73.671,256c0-4.465-3.62-8.084-8.084-8.084H8.084C3.62,247.916,0,251.535,0,256c0,4.465,3.62,8.084,8.084,8.084h57.502
				C70.051,264.084,73.671,260.465,73.671,256z"/>
			<path d="M503.916,247.916h-57.503c-4.466,0-8.084,3.62-8.084,8.084c0,4.465,3.618,8.084,8.084,8.084h57.503
				c4.466,0,8.084-3.62,8.084-8.084C512,251.535,508.382,247.916,503.916,247.916z"/>
			<path d="M115.642,384.926l-40.661,40.659c-3.157,3.157-3.157,8.276,0,11.433c1.578,1.579,3.648,2.368,5.716,2.368
				s4.138-0.79,5.716-2.368l40.661-40.66c3.157-3.156,3.157-8.275,0-11.432C123.918,381.769,118.799,381.769,115.642,384.926z"/>
			<path d="M390.643,129.441c2.068,0,4.138-0.79,5.716-2.369l40.66-40.659c3.157-3.156,3.157-8.275,0-11.432
				c-3.156-3.157-8.274-3.158-11.433,0l-40.66,40.659c-3.157,3.157-3.157,8.276,0,11.433
				C386.505,128.652,388.573,129.441,390.643,129.441z"/>
			<path d="M153.793,95.14c1.497,2.593,4.215,4.043,7.008,4.043c1.371,0,2.762-0.35,4.035-1.084
				c3.866-2.232,5.191-7.177,2.959-11.043l-28.752-49.8c-2.232-3.866-7.177-5.19-11.043-2.959
				c-3.866,2.232-5.191,7.177-2.959,11.043L153.793,95.14z"/>
			<path d="M358.207,416.862c-2.231-3.867-7.178-5.191-11.043-2.959c-3.866,2.232-5.191,7.177-2.959,11.043l28.751,49.799
				c1.497,2.593,4.215,4.043,7.008,4.043c1.371,0,2.762-0.35,4.035-1.084c3.866-2.232,5.191-7.177,2.959-11.043L358.207,416.862z"/>
			<path d="M14.441,199.642l55.543,14.884c0.701,0.189,1.404,0.278,2.098,0.278c3.569,0,6.835-2.382,7.804-5.994
				c1.156-4.313-1.403-8.746-5.716-9.902l-55.543-14.885c-4.309-1.154-8.746,1.403-9.902,5.717
				C7.569,194.053,10.128,198.487,14.441,199.642z"/>
			<path d="M497.559,312.356l-55.543-14.884c-4.313-1.156-8.746,1.403-9.901,5.716c-1.155,4.313,1.403,8.746,5.716,9.902
				l55.543,14.884c0.701,0.189,1.405,0.278,2.098,0.278c3.569,0,6.836-2.382,7.803-5.994
				C504.431,317.944,501.872,313.511,497.559,312.356z"/>
			<path d="M98.099,347.164c-2.232-3.866-7.177-5.19-11.043-2.959l-49.8,28.75c-3.866,2.232-5.191,7.177-2.959,11.043
				c1.497,2.593,4.215,4.044,7.008,4.044c1.371,0,2.762-0.349,4.035-1.084l49.8-28.751
				C99.007,355.975,100.332,351.03,98.099,347.164z"/>
			<path d="M413.902,164.835c1.498,2.594,4.215,4.044,7.008,4.044c1.372,0,2.763-0.35,4.035-1.085l49.798-28.751
				c3.866-2.232,5.191-7.177,2.959-11.043c-2.233-3.867-7.178-5.191-11.043-2.959l-49.798,28.751
				C412.994,156.024,411.67,160.968,413.902,164.835z"/>
			<path d="M208.81,432.116c-4.309-1.156-8.746,1.403-9.902,5.716l-14.883,55.543c-1.156,4.313,1.403,8.746,5.717,9.902
				c0.701,0.188,1.404,0.277,2.098,0.277c3.569,0,6.836-2.382,7.804-5.994l14.882-55.542
				C215.682,437.705,213.122,433.272,208.81,432.116z"/>
			<path d="M303.192,79.885c0.701,0.188,1.404,0.277,2.098,0.277c3.569,0,6.835-2.383,7.803-5.994l14.881-55.543
				c1.156-4.313-1.403-8.746-5.716-9.9c-4.314-1.157-8.746,1.403-9.9,5.716l-14.881,55.543
				C296.321,74.296,298.88,78.729,303.192,79.885z"/>
		</g>
	</g>
</g>
<g>
</g>
<g>
</g>
<g>
</g>
<g>
</g>
<g>
</g>
<g>
</g>
<g>
</g>
<g>
</g>
<g>
</g>
<g>
</g>
<g>
</g>
<g>
</g>
<g>
</g>
<g>
</g>
<g>
</g>
</svg>
