<?xml version="1.0" encoding="iso-8859-1"?>
<!-- Generator: Adobe Illustrator 19.0.0, SVG Export Plug-In . SVG Version: 6.00 Build 0)  -->
<svg version="1.1" id="Capa_1" xmlns="http://www.w3.org/2000/svg" xmlns:xlink="http://www.w3.org/1999/xlink" x="0px" y="0px" width="100%" height="100%"
	 viewBox="0 0 512.001 512.001" style="enable-background:new 0 0 512.001 512.001;" xml:space="preserve">
<g>
	<g>
		<path d="M507.986,253.607c-2.667-1.399-5.312-2.811-7.957-4.221c-30.378-16.199-61.791-32.95-123.797-32.95
			c-31.755,0-58.058,4.299-82.773,13.528c-3.88,1.449-5.851,5.77-4.402,9.65c1.449,3.881,5.771,5.85,9.65,4.402
			c22.985-8.583,47.62-12.581,77.527-12.581c58.258,0,86.666,15.148,116.739,31.186c2.674,1.426,5.348,2.852,8.042,4.267
			c1.113,0.584,2.305,0.861,3.48,0.861c2.698-0.001,5.306-1.461,6.647-4.016C513.065,260.066,511.653,255.533,507.986,253.607z"/>
	</g>
</g>
<g>
	<g>
		<path d="M270.66,248.253c-1.925-3.668-6.459-5.081-10.127-3.156c-2.711,1.423-5.401,2.857-8.091,4.292
			c-7.61,4.059-15.479,8.255-23.655,12.061c-3.755,1.748-5.382,6.21-3.635,9.965c1.271,2.731,3.978,4.337,6.804,4.337
			c1.06,0,2.136-0.226,3.16-0.702c8.545-3.978,16.597-8.271,24.384-12.425c2.661-1.419,5.322-2.838,8.005-4.246
			C271.172,256.454,272.585,251.92,270.66,248.253z"/>
	</g>
</g>
<g>
	<g>
		<path d="M207.672,278.026c-1.117-3.987-5.257-6.313-9.245-5.198c-18.586,5.206-39.092,7.737-62.689,7.737
			c-58.251,0-86.654-15.148-116.724-31.187c-2.668-1.423-5.336-2.846-8.025-4.258c-3.667-1.925-8.201-0.514-10.127,3.154
			c-1.926,3.668-0.514,8.202,3.153,10.128c2.66,1.396,5.3,2.805,7.939,4.212c30.375,16.2,61.783,32.951,123.783,32.951
			c24.984,0,46.813-2.713,66.736-8.294C206.462,286.154,208.789,282.015,207.672,278.026z"/>
	</g>
</g>
<g>
	<g>
		<path d="M507.987,197.496c-2.666-1.399-5.31-2.81-7.955-4.22c-30.378-16.2-61.792-32.952-123.8-32.952
			c-61.999,0-93.404,16.749-123.776,32.947c-30.068,16.035-58.469,31.182-116.717,31.182c-17.167,0-32.439-1.309-46.688-4.001
			c-4.068-0.777-7.993,1.906-8.762,5.977c-0.769,4.07,1.907,7.993,5.977,8.762c15.177,2.868,31.36,4.263,49.473,4.263
			c61.998,0,93.403-16.749,123.775-32.946c30.068-16.036,58.469-31.183,116.717-31.183c58.26-0.001,86.667,15.148,116.742,31.186
			c2.673,1.426,5.347,2.852,8.041,4.266c3.667,1.925,8.201,0.514,10.127-3.154C513.065,203.954,511.654,199.421,507.987,197.496z"/>
	</g>
</g>
<g>
	<g>
		<path d="M58.222,211.876c-14.393-5.373-26.45-11.804-39.215-18.612c-2.666-1.422-5.332-2.844-8.018-4.254
			c-3.667-1.927-8.201-0.514-10.127,3.152c-1.926,3.667-0.515,8.2,3.153,10.126c2.658,1.396,5.295,2.803,7.933,4.21
			c12.635,6.739,25.701,13.708,41.028,19.43c0.865,0.322,1.75,0.476,2.622,0.476c3.041,0,5.901-1.863,7.027-4.879
			C64.074,217.644,62.102,213.324,58.222,211.876z"/>
	</g>
</g>
<g>
	<g>
		<path d="M507.986,309.72c-2.665-1.398-5.309-2.809-7.953-4.219c-30.379-16.2-61.792-32.952-123.802-32.952
			c-61.999,0-93.404,16.749-123.776,32.946c-27.28,14.549-53.047,28.291-101.055,30.787c-4.136,0.216-7.315,3.743-7.1,7.88
			c0.208,4.004,3.52,7.11,7.483,7.11c0.131,0,0.263-0.003,0.396-0.01c51.342-2.671,79.807-17.852,107.334-32.532
			c30.069-16.035,58.469-31.182,116.718-31.182c58.261,0,86.669,15.149,116.743,31.188c2.673,1.426,5.345,2.851,8.039,4.265
			c3.667,1.925,8.201,0.514,10.127-3.154C513.065,316.18,511.653,311.646,507.986,309.72z"/>
	</g>
</g>
<g>
	<g>
		<path d="M120.12,336.286c-48.041-2.491-73.818-16.24-101.108-30.796c-2.667-1.423-5.334-2.845-8.022-4.257
			c-3.667-1.925-8.201-0.513-10.127,3.153c-1.926,3.668-0.514,8.202,3.153,10.128c2.659,1.396,5.298,2.804,7.937,4.211
			c27.539,14.688,56.015,29.876,107.39,32.541c0.132,0.007,0.264,0.01,0.395,0.01c3.964,0,7.276-3.107,7.484-7.111
			C127.437,340.028,124.257,336.501,120.12,336.286z"/>
	</g>
</g>
<g>
	<g>
		<path d="M507.984,141.383c-2.667-1.4-5.314-2.812-7.961-4.224c-12.627-6.733-25.684-13.695-40.997-19.415
			c-3.88-1.447-8.201,0.521-9.65,4.402c-1.448,3.881,0.523,8.201,4.403,9.651c14.381,5.37,26.43,11.796,39.187,18.599
			c2.675,1.427,5.351,2.854,8.047,4.269c1.112,0.584,2.304,0.861,3.479,0.861c2.698,0,5.306-1.461,6.647-4.016
			C513.064,147.842,511.652,143.309,507.984,141.383z"/>
	</g>
</g>
<g>
	<g>
		<path d="M425.735,108.479c-5.35-1.011-10.926-1.852-16.575-2.497c-4.115-0.472-7.833,2.484-8.304,6.599
			c-0.47,4.115,2.485,7.833,6.6,8.303c5.288,0.605,10.501,1.39,15.494,2.333c0.471,0.09,0.939,0.132,1.401,0.132
			c3.534,0,6.681-2.509,7.361-6.108C432.481,113.171,429.805,109.248,425.735,108.479z"/>
	</g>
</g>
<g>
	<g>
		<path d="M376.23,104.211c-61.999,0-93.404,16.749-123.776,32.946c-20.821,11.104-40.488,21.593-69.996,27.174
			c-4.07,0.77-6.745,4.693-5.976,8.763c0.682,3.6,3.828,6.108,7.362,6.108c0.462,0,0.931-0.043,1.402-0.132
			c31.759-6.007,53.369-17.531,74.267-28.677c30.068-16.035,58.469-31.182,116.717-31.182c4.142,0,7.5-3.357,7.5-7.5
			C383.73,107.568,380.372,104.211,376.23,104.211z"/>
	</g>
</g>
<g>
	<g>
		<path d="M159.28,175.045c-0.215-4.136-3.74-7.327-7.88-7.101c-5.04,0.263-10.309,0.396-15.662,0.396
			c-58.251,0-86.654-15.148-116.724-31.187c-2.668-1.423-5.336-2.846-8.025-4.258c-3.667-1.924-8.201-0.514-10.127,3.154
			c-1.925,3.668-0.513,8.203,3.154,10.128c2.66,1.396,5.3,2.805,7.94,4.212c30.375,16.2,61.783,32.951,123.783,32.951
			c5.612,0,11.143-0.14,16.441-0.415C156.316,182.709,159.495,179.182,159.28,175.045z"/>
	</g>
</g>
<g>
	<g>
		<path d="M507.986,365.833c-2.664-1.398-5.307-2.808-7.95-4.218c-17.002-9.066-34.583-18.442-57.67-24.83
			c-3.993-1.101-8.124,1.236-9.229,5.229c-1.104,3.992,1.236,8.124,5.229,9.229c21.491,5.945,37.579,14.525,54.612,23.608
			c2.671,1.425,5.343,2.85,8.036,4.264c1.113,0.584,2.305,0.861,3.48,0.861c2.698,0,5.306-1.461,6.647-4.016
			C513.065,372.294,511.653,367.759,507.986,365.833z"/>
	</g>
</g>
<g>
	<g>
		<path d="M409.162,330.433c-5.312-0.607-10.863-1.064-16.499-1.357c-4.14-0.21-7.664,2.965-7.879,7.102
			c-0.215,4.136,2.964,7.664,7.101,7.879c5.328,0.276,10.567,0.707,15.573,1.279c0.29,0.033,0.577,0.05,0.862,0.05
			c3.761,0,7.004-2.823,7.442-6.648C416.232,334.622,413.278,330.904,409.162,330.433z"/>
	</g>
</g>
<g>
	<g>
		<path d="M367.701,336.177c-0.215-4.136-3.738-7.298-7.879-7.102c-51.363,2.666-79.834,17.85-107.367,32.533
			c-2.645,1.411-5.29,2.821-7.955,4.221c-3.667,1.926-5.08,6.46-3.154,10.127c1.341,2.555,3.948,4.016,6.647,4.016
			c1.175,0,2.367-0.277,3.48-0.861c2.694-1.415,5.368-2.841,8.041-4.266c27.286-14.552,53.059-28.297,101.086-30.789
			C364.737,343.841,367.916,340.314,367.701,336.177z"/>
	</g>
</g>
<g>
	<g>
		<path d="M222.951,384.596c-1.449-3.882-5.77-5.848-9.65-4.401c-22.996,8.593-47.642,12.595-77.564,12.595
			c-58.253,0-86.656-15.149-116.728-31.188c-2.667-1.422-5.333-2.844-8.021-4.256c-3.667-1.924-8.201-0.513-10.127,3.153
			c-1.926,3.668-0.514,8.202,3.153,10.128c2.659,1.396,5.297,2.803,7.936,4.21c30.375,16.201,61.784,32.953,123.787,32.953
			c31.771,0,58.086-4.304,82.813-13.544C222.431,392.796,224.401,388.475,222.951,384.596z"/>
	</g>
</g>
<g>
</g>
<g>
</g>
<g>
</g>
<g>
</g>
<g>
</g>
<g>
</g>
<g>
</g>
<g>
</g>
<g>
</g>
<g>
</g>
<g>
</g>
<g>
</g>
<g>
</g>
<g>
</g>
<g>
</g>
</svg>
