<svg height="100%" viewBox="0 -46 512.002 512" class="icon" width="100%" xmlns="http://www.w3.org/2000/svg"><path d="m187.558594 39.796875c4.140625 0 7.5-3.359375 7.5-7.5v-24.796875c0-4.140625-3.359375-7.5-7.5-7.5s-7.5 3.359375-7.5 7.5v24.796875c0 4.140625 3.359375 7.5 7.5 7.5zm0 0"/><path d="m103.429688 56.847656c1.390624 2.40625 3.910156 3.75 6.503906 3.75 1.273437 0 2.5625-.324218 3.742187-1.007812 3.589844-2.070313 4.816407-6.65625 2.746094-10.242188l-12.398437-21.472656c-2.070313-3.589844-6.65625-4.820312-10.242188-2.746094-3.589844 2.070313-4.816406 6.65625-2.746094 10.246094zm0 0"/><path d="m27.875 104.023438 21.472656 12.398437c1.179688.683594 2.46875 1.003906 3.742188 1.003906 2.589844 0 5.113281-1.34375 6.5-3.75 2.074218-3.585937.84375-8.171875-2.742188-10.246093l-21.472656-12.394532c-3.589844-2.074218-8.175781-.84375-10.246094 2.746094-2.070312 3.585938-.84375 8.171875 2.746094 10.242188zm0 0"/><path d="m39.796875 187.558594c0-4.140625-3.359375-7.5-7.5-7.5h-24.796875c-4.140625 0-7.5 3.359375-7.5 7.5s3.359375 7.5 7.5 7.5h24.796875c4.140625 0 7.5-3.359375 7.5-7.5zm0 0"/><path d="m322.027344 117.425781c1.269531 0 2.5625-.320312 3.742187-1.003906l21.472657-12.398437c3.585937-2.070313 4.816406-6.65625 2.746093-10.242188-2.070312-3.589844-6.660156-4.820312-10.246093-2.746094l-21.472657 12.394532c-3.585937 2.074218-4.816406 6.660156-2.746093 10.246093 1.390624 2.40625 3.910156 3.75 6.503906 3.75zm0 0"/><path d="m59.589844 261.441406c-2.070313-3.589844-6.65625-4.820312-10.242188-2.746094l-21.472656 12.394532c-3.589844 2.074218-4.816406 6.660156-2.746094 10.246094 1.386719 2.40625 3.910156 3.75 6.5 3.75 1.273438 0 2.5625-.324219 3.746094-1.003907l21.472656-12.398437c3.585938-2.070313 4.816406-6.65625 2.742188-10.242188zm0 0"/><path d="m261.441406 59.589844c1.179688.683594 2.46875 1.007812 3.742188 1.007812 2.589844 0 5.113281-1.34375 6.5-3.75l12.398437-21.472656c2.070313-3.589844.839844-8.175781-2.746093-10.246094-3.585938-2.074218-8.171876-.84375-10.246094 2.746094l-12.394532 21.472656c-2.074218 3.585938-.84375 8.171875 2.746094 10.242188zm0 0"/><path d="m491.183594 294.75c-11.828125-12.207031-27.210938-19.855469-43.878906-21.929688-7.324219-66.6875-64.019532-118.011718-131.84375-118.011718-3.222657 0-6.4375.117187-9.632813.347656-4.386719-15.996094-12.09375-31.167969-22.5-44.164062-2.585937-3.234376-7.308594-3.753907-10.539063-1.167969-3.234374 2.589843-3.757812 7.308593-1.171874 10.542969 8.699218 10.863281 15.246093 23.457031 19.175781 36.75-16.691407 3.144531-32.652344 9.460937-47.058594 18.742187-19.699219 12.683594-35.632813 30.273437-46.300781 51.027344-3.824219-.46875-7.703125-.71875-11.613282-.71875-30.398437 0-57.730468 14.113281-75.570312 36.257812-19.582031-20.164062-30.3125-46.554687-30.3125-74.867187 0-59.34375 48.277344-107.621094 107.617188-107.621094 22.265624 0 43.632812 6.746094 61.792968 19.503906 3.390625 2.382813 8.066406 1.5625 10.449219-1.824218 2.378906-3.390626 1.5625-8.066407-1.824219-10.449219-20.699218-14.542969-45.046875-22.230469-70.417968-22.230469-67.609376 0-122.617188 55.007812-122.617188 122.621094 0 32.792968 13.351562 64.523437 36.707031 87.480468-6.179687 10.773438-10.371093 22.84375-12.011719 35.742188-26.53125 4.078125-46.460937 26.789062-46.460937 54.335938 0 30.328124 24.675781 55 55.003906 55h256.496094c4.140625 0 7.5-3.355469 7.5-7.5 0-4.140626-3.359375-7.5-7.5-7.5h-43.273437c15.492187-12.460938 25.433593-31.558594 25.433593-52.945313 0-11.933594-3.15625-23.683594-9.125-33.988281-2.074219-3.585938-6.664062-4.808594-10.25-2.730469-3.582031 2.074219-4.804687 6.664063-2.730469 10.246094 4.648438 8.023437 7.105469 17.179687 7.105469 26.472656 0 29.195313-23.753906 52.945313-52.945312 52.945313h-170.710938c-22.058593 0-40-17.945313-40-40 0-21.667969 16.953125-39.222657 38.601563-39.964844 3.863281-.132813 6.992187-3.183594 7.226562-7.042969 2.613282-43.144531 38.550782-76.941406 81.816406-76.941406 33.996094 0 64.855469 21.382812 76.785157 53.210937 1.085937 2.898438 3.839843 4.832032 6.933593 4.867188 8.628907.105468 17.171876 2.335937 24.707032 6.457031 3.636718 1.988281 8.191406.652344 10.179687-2.980469 1.988281-3.632812.652344-8.191406-2.980469-10.179687-8.203124-4.484375-17.332031-7.226563-26.660156-8.042969-11.609375-26.664062-34.691406-46.476562-62.023437-54.457031 9.410156-16.804688 22.800781-31.078125 39.097656-41.574219 18.953125-12.207031 40.949219-18.660156 63.605469-18.660156 62.097656 0 113.675781 48.507812 117.425781 110.433594.234375 3.859374 3.363281 6.910156 7.230469 7.042968 31.894531 1.09375 56.878906 26.964844 56.878906 58.890625 0 32.5-26.441406 58.945313-58.945312 58.945313h-50.71875c-4.144532 0-7.5 3.355468-7.5 7.5 0 4.140625 3.355468 7.5 7.5 7.5h50.71875c40.773437 0 73.949218-33.171875 73.949218-73.945313-.003906-19.304687-7.398437-37.5625-20.820312-51.425781zm0 0"/><path d="m407.246094 272.8125c.582031 0 1.171875-.066406 1.757812-.207031 4.027344-.96875 6.507813-5.019531 5.542969-9.046875-1.355469-5.628906-3.207031-11.179688-5.507813-16.5-1.644531-3.800782-6.0625-5.546875-9.863281-3.902344s-5.546875 6.058594-3.902343 9.859375c1.957031 4.527344 3.535156 9.253906 4.6875 14.050781.828124 3.4375 3.898437 5.746094 7.285156 5.746094zm0 0"/><path d="m388.792969 227.5625c2.988281-2.867188 3.085937-7.613281.21875-10.601562-19.441407-20.253907-45.5625-31.40625-73.550781-31.40625-4.140626 0-7.5 3.355468-7.5 7.5 0 4.140624 3.359374 7.5 7.5 7.5 23.867187 0 46.144531 9.515624 62.730468 26.792968 1.472656 1.535156 3.4375 2.304688 5.410156 2.304688 1.867188 0 3.738282-.691406 5.191407-2.089844zm0 0"/></svg>