<svg height="100%" class="icon" viewBox="0 -60 512.003 512" width="100%" xmlns="http://www.w3.org/2000/svg"><path d="m81.96875 83.441406c-.257812 4.132813 2.882812 7.695313 7.015625 7.953125.160156.007813.320313.015625.476563.015625 3.929687 0 7.230468-3.058594 7.476562-7.035156.792969-12.734375 11.847656-22.710938 25.160156-22.710938 4.140625 0 7.5-3.359374 7.5-7.5 0-4.144531-3.359375-7.5-7.5-7.5-21.21875 0-38.84375 16.15625-40.128906 36.777344zm0 0"/><path d="m396.085938 120.589844c11.734374 0 21.476562 8.78125 22.175781 19.992187.246093 3.976563 3.546875 7.035157 7.476562 7.035157.15625 0 .316407-.007813.472657-.015626 4.136718-.257812 7.277343-3.820312 7.019531-7.953124-1.191407-19.097657-17.503907-34.058594-37.144531-34.058594-4.140626 0-7.5 3.355468-7.5 7.5 0 4.144531 3.359374 7.5 7.5 7.5zm0 0"/><path d="m485.546875 339.394531h-11.925781c4.804687-6.992187 7.445312-15.328125 7.445312-23.996093 0-23.394532-19.035156-42.425782-42.425781-42.425782-3.273437 0-6.488281.367188-9.617187 1.097656-3.238282-8.734374-8.332032-16.4375-14.757813-22.714843l71.28125-.027344c14.585937 0 26.453125-11.613281 26.453125-25.890625 0-9.179688-4.914062-17.253906-12.300781-21.851562 4.917969-7.136719 7.566406-15.523438 7.566406-24.339844 0-21.535156-15.695313-39.355469-36.773437-43.0625-2.289063-15.289063-9.265626-29.046875-19.421876-39.917969h.066407.019531c7.183594 0 13.949219-2.726563 19.046875-7.671875 5.167969-5.011719 8.011719-11.691406 8.011719-18.8125 0-14.601562-12.140625-26.480469-27.066406-26.480469h-11.015626c.074219-.984375.113282-1.976562.113282-2.972656 0-22.234375-18.546875-40.328125-41.339844-40.328125-14.582031 0-28.082031 7.667969-35.464844 19.628906-10.410156-1.980468-21.246094 1.117188-29.003906 8.644532-4.378906 4.25-7.363281 9.492187-8.738281 15.214843-13.386719 1.570313-23.800781 12.75-23.800781 26.265625 0 1.320313.101562 2.644532.300781 3.945313-9.960938 7.28125-16.320313 18.433593-17.394531 30.515625h-29.121094c-5.261719-25.003906-26.613282-43.753906-52.902344-46.152344-2.59375-5.652344-5.847656-11.023438-9.710938-16.023438-2.53125-3.277343-7.242187-3.878906-10.519531-1.347656-3.277343 2.53125-3.882812 7.246094-1.347656 10.519532 3.996094 5.175781 7.195313 10.824218 9.5 16.796874 1.105469 2.859376 3.839844 4.761719 6.910156 4.792969 23.199219.273438 42.175781 17.285157 44.140625 39.570313.339844 3.875 3.585938 6.84375 7.472656 6.84375h43.136719c2.136719 0 4.171875-.914063 5.597657-2.507813 1.421874-1.59375 2.097656-3.722656 1.851562-5.847656-1.308594-11.4375 5-22.585937 15.703125-27.742187 10.347656-4.984376 22.566406-3.414063 31.160156 3.445312-10.375 7.554688-18.855469 17.605469-24.351562 29.421875-23.8125 2.339844-43.152344 19.28125-48.160157 41.894531h-25.28125c-1.402343-13.292968-9.707031-25.304687-22.3125-31.378906-16.582031-7.988281-36.0625-4.019531-47.957031 8.992188-5.058593-2.152344-10.53125-3.269532-16.132812-3.269532-14.832031 0-28.148438 7.953125-35.171875 20.035156-10.894532-10.296874-25.699219-16.453124-41.421875-16.453124-18.863281 0-35.796875 8.640624-46.710938 22.152343-13.882812-4.148437-23.695312-16.769531-23.695312-30.980469 0-17.5625 14.261719-31.792968 32.472656-32.398437 3.863281-.128906 6.992187-3.171875 7.234375-7.03125 2.226562-35.640625 32.925781-63.5625 69.894531-63.5625 11.679688 0 23.242188 2.839844 33.4375 8.210937 3.667969 1.929688 8.199219.523438 10.128907-3.140624 1.933593-3.664063.527343-8.199219-3.136719-10.132813-12.34375-6.5-26.324219-9.9375-40.429688-9.9375-42.652343 0-78.445312 30.8125-84.210937 71.25-23.117188 3.804687-40.390625 23.230469-40.390625 46.742187 0 19.554688 12.539062 37.019532 30.726562 44.089844-1.769531 4.046875-3.085937 8.332032-3.867187 12.800782-15.765625 3.410156-27.339844 17.035156-27.339844 33.402343 0 18.871094 15.722656 34.226563 35.050781 34.226563 2.332031 0 38.59375-.011719 89.621094-.03125 4.140625-.003906 7.5-3.359375 7.496094-7.503906 0-4.140626-3.359375-7.496094-7.5-7.496094-51.027344.019531-87.285157.03125-89.617188.03125-11.054687 0-20.050781-8.625-20.050781-19.226563 0-10.410156 8.496094-18.847656 19.339844-19.210937 3.863281-.128906 6.996094-3.171875 7.234375-7.027344 1.40625-22.558594 20.871093-40.226562 44.3125-40.226562 18.445312 0 35.167969 11.207031 41.613281 27.882812 1.101562 2.859375 3.839844 4.761719 6.90625 4.796875 14.25.167969 25.902344 10.582031 27.105469 24.226563.34375 3.871093 3.585937 6.84375 7.472656 6.84375h57.984375c-5.265625 6.578124-9.589844 13.941406-12.8125 21.878906l-56.828125.019531c-4.144531 0-7.5 3.359375-7.496094 7.503906 0 4.140625 3.355469 7.496094 7.5 7.496094l52.246094-.019531c-.4375 2.097656-.824219 4.214844-1.109375 6.367187-13.695312 2.3125-25.855469 10.230469-33.535156 21.710938-6.710938-4.257813-14.5-6.539063-22.652344-6.539063-12.046875 0-23.378906 5.105469-31.363281 13.878906-9.984375-7.105468-22.199219-11.203124-35.03125-11.203124-29.171875 0-53.75 20.65625-58.546875 48.0625-15.761719 3.40625-27.339844 17.03125-27.339844 33.398437 0 18.875 15.722656 34.230469 35.050781 34.230469l52.621094-.019532c4.140625-.003906 7.5-3.359374 7.5-7.503906-.003906-4.140625-3.359375-7.496094-7.5-7.496094h-.003906l-52.613281.019532c-11.058594 0-20.054688-8.628906-20.054688-19.230469 0-10.410156 8.496094-18.847656 19.339844-19.210937 3.863281-.128907 6.996094-3.171876 7.234375-7.027344 1.410156-22.554688 20.875-40.226563 44.3125-40.226563 18.445312 0 35.167969 11.207031 41.613281 27.882813 1.105469 2.863281 3.839844 4.761718 6.90625 4.796875 10.28125.121093 19.566406 5.6875 24.234375 14.523437 1.421875 2.699219 4.34375 4.257813 7.378906 3.960938 3.039063-.304688 5.589844-2.421875 6.449219-5.347656 3.09375-10.546876 13.21875-17.910157 24.621094-17.910157 12.996094 0 23.921875 9.34375 25.414062 21.738281.332032 2.746094 2.148438 5.089844 4.726563 6.09375 2.578125 1.003907 5.503906.503907 7.605469-1.300781 3.074218-2.636719 7.039062-4.089843 11.164062-4.089843 6.457031 0 12.410156 3.613281 15.160156 9.210937 1.261719 2.566406 3.875 4.191406 6.730469 4.191406h62.25c4.117187 0 7.464844-3.316406 7.5-7.433593.042969-4.429688 3.886719-8.03125 8.574219-8.03125 1.625 0 3.214844.445312 4.605468 1.285156 2.039063 1.230468 4.542969 1.421875 6.746094.511718 2.203125-.910156 3.839844-2.8125 4.414063-5.128906 3.625-14.621094 17.0625-24.832031 32.683593-24.832031 14.007813 0 26.679688 8.503906 31.535157 21.160156 1.363281 3.542969 5.15625 5.511719 8.835937 4.585938 1.394532-.355469 2.835938-.53125 4.285156-.53125 7.8125 0 14.691407 5.292969 16.355469 12.582031.777344 3.410156 3.8125 5.832031 7.308594 5.832031h22.566406c6.3125 0 11.453125 4.882813 11.453125 10.886719s-5.140625 10.886719-11.457031 10.886719l-365.214844.140625c-4.144531 0-7.5 3.359375-7.496093 7.5 0 4.144531 3.355468 7.5 7.5 7.5l365.214843-.140625c14.585938 0 26.453125-11.613281 26.453125-25.886719 0-14.277344-11.871094-25.886719-26.457031-25.886719zm-.003906-103.070312-95.488281.039062c-.339844 0-.671876.03125-1 .074219-3.972657-1.207031-8.105469-2.035156-12.355469-2.425781-5.824219-13.199219-14.75-24.527344-25.699219-33.265625 3.132812-3.234375 7.503906-5.097656 12.25-5.097656 3.125 0 6.167969.824218 8.800781 2.386718 1.972657 1.167969 4.363281 1.375 6.503907.558594 2.136718-.816406 3.785156-2.5625 4.476562-4.742188 4.339844-13.714843 17.261719-22.925781 32.152344-22.925781 18.535156 0 33.617187 14.527344 33.617187 32.386719 0 .972656-.050781 1.960938-.152343 3.023438-.203126 2.105468.492187 4.195312 1.914062 5.761718 1.421875 1.5625 3.4375 2.453125 5.550781 2.453125h29.433594c6.316406 0 11.453125 4.886719 11.453125 10.890625s-5.136719 10.882813-11.457031 10.882813zm-168.164063-169.746094c1.453125-4.773437 6.078125-8.277344 11.554688-8.277344h3.40625c4.140625 0 7.5-3.355469 7.5-7.5 0-4.429687 1.789062-8.605469 5.039062-11.761719 5.0625-4.90625 12.898438-6.332031 19.507813-3.539062 1.859375.785156 3.960937.785156 5.820312.003906 1.863281-.78125 3.332031-2.28125 4.074219-4.160156 3.859375-9.773438 13.757812-16.34375 24.625-16.34375 14.523438 0 26.339844 11.363281 26.339844 25.328125 0 2.726563-.457032 5.425781-1.355469 8.015625-.792969 2.292969-.433594 4.828125.976563 6.808594 1.40625 1.976562 3.683593 3.148437 6.109374 3.148437h20.175782c6.652344 0 12.066406 5.152344 12.066406 11.480469 0 3.027344-1.230469 5.882812-3.457031 8.042969-2.285157 2.21875-5.34375 3.4375-8.605469 3.4375-.003906 0-.007812 0-.007812 0l-18.808594-.007813c-.003906 0-.003906 0-.003906 0-.164063 0-.324219.011719-.484376.023438-11.386718-6.3125-24.527343-9.921875-38.476562-9.921875-11.675781 0-22.960938 2.589843-33.148438 7.273437-10.972656-11.386718-27.53125-15.917968-42.847656-12.050781zm-177.835937 102.238281c-.523438-1.066406-1.085938-2.113281-1.671875-3.144531 2.808594-10.757813 12.945312-18.453125 24.613281-18.453125 5.066406 0 9.957031 1.433594 14.144531 4.140625 1.679688 1.085937 3.722656 1.453125 5.675782 1.027344 1.953124-.425781 3.652343-1.617188 4.726562-3.304688 6.820312-10.722656 21.328125-14.707031 33.03125-9.066406 9.460938 4.558594 15.039062 14.40625 13.882812 24.507813-.242187 2.125.429688 4.253906 1.851563 5.847656 1.425781 1.597656 3.460937 2.507812 5.597656 2.507812h39.191407c3.886718 0 7.128906-2.96875 7.472656-6.84375 1.753906-19.894531 18.703125-35.082031 39.429687-35.324218 3.066407-.035157 5.800781-1.9375 6.90625-4.796876 9.144531-23.660156 32.84375-39.558593 58.980469-39.558593 33.226562 0 60.820312 25.085937 62.816406 57.109375.242188 3.855468 3.375 6.898437 7.234375 7.027344 16.171875.539062 28.839844 13.167968 28.839844 28.75 0 7.679687-3.097656 14.875-8.71875 20.308593h-19.898437c-1.972657-24.378906-22.953126-43.628906-48.460938-43.628906-18.644531 0-35.179688 10.125-43.347656 25.878906-2.777344-.765625-5.667969-1.15625-8.585938-1.15625-9.824218 0-18.84375 4.308594-24.832031 11.691407-12.785156-7.054688-27.347656-11-42.496094-11-20.148437 0-38.8125 6.828124-53.742187 18.316406-.386719-.058594-.78125-.101563-1.183594-.101563h-65.730469c-4.296875-16.367187-18.386719-28.582031-35.726562-30.734375zm299.777343 152.167969c-.558593 0-1.113281.015625-1.667968.042969-8.332032-15.320313-24.910156-25.257813-42.992188-25.257813-19.683594 0-37.003906 11.375-44.589844 28.476563-1.269531-.207032-2.558593-.3125-3.855468-.3125-10.230469 0-19.003906 6.472656-22.242188 15.460937h-51.851562c-5.867188-8.265625-15.660156-13.402343-26.121094-13.402343-3.921875 0-7.773438.710937-11.375 2.0625-6.121094-14.5-20.746094-24.503907-37.535156-24.503907-13.367188 0-25.648438 6.496094-33.121094 16.746094-6.5625-6.335937-15.117188-10.457031-24.425781-11.628906-2.0625-4.210938-4.628907-8.113281-7.601563-11.652344 5.167969-5.714844 12.519532-9.042969 20.339844-9.042969 7.433594 0 14.394531 2.933594 19.605469 8.257813 1.757812 1.800781 4.300781 2.601562 6.773437 2.125 2.472656-.476563 4.542969-2.160157 5.511719-4.480469 5.308594-12.738281 17.640625-21.277344 31.421875-21.75 3.863281-.132812 6.996094-3.183594 7.230469-7.042969 2.332031-38.550781 34.441406-68.746093 73.101562-68.746093 30.375 0 57.945313 19.105468 68.605469 47.546874 1.085938 2.894532 3.839844 4.828126 6.933594 4.863282 21.835937.265625 40.457031 15.304687 45.285156 36.574218.5 2.207032 1.96875 4.066407 3.996094 5.066407 2.027344 1.003906 4.398437 1.035156 6.453125.089843 3.609375-1.660156 7.457031-2.503906 11.441406-2.503906 15.121094 0 27.421875 12.304688 27.421875 27.425782 0 5.289062-1.527344 10.382812-4.304688 14.742187-5.824218-5.683594-13.839843-9.15625-22.4375-9.15625zm0 0"/></svg>