<svg xmlns="http://www.w3.org/2000/svg" version="1.1" xmlns:xlink="http://www.w3.org/1999/xlink" overflow="hidden" style="top:0; left: 0" width="314.83795200000003" height="78.7636864" viewBox="0 0 314.83795200000003 78.7636864" preserveAspectRatio="none" data-parent="shape_phn1wcJWnT"><rect fill="rgba(0,0,0,0)" width="617.554304" height="78.7636864"></rect> <rect opacity="0"></rect><g transform="translate(0 0)" data-width="309.83795200000003"><path fill="rgb(25, 25, 25)" d="M18.78-7.18L23.75-7.18L23.75-33.62L33.00-33.62L33.00-7.18L42.94-7.18L42.94-33.62L52.12-33.62L52.12 0L18.15 0Q13.53 0 11.11-0.69Q8.70-1.38 7.11-3.11L7.11-3.11Q4.07-6.42 4.07-12.22L4.07-12.22L4.07-33.62L13.25-33.62L13.25-13.67Q13.25-11.25 13.50-10.29Q13.74-9.32 14.43-8.56L14.43-8.56Q15.88-7.18 18.78-7.18L18.78-7.18Z" transform="translate(0 59.2971136)"></path><path fill="rgb(25, 25, 25)" d="M12.49-20.43L31.96-20.43L31.96-13.25L12.49-13.25Q12.77-9.94 14.63-8.56Q16.50-7.18 20.71-7.18L20.71-7.18L31.96-7.18L31.96 0L19.67 0Q15.67 0 13.15-0.72Q10.63-1.45 8.42-3.11L8.42-3.11Q2.28-7.87 2.28-17.26L2.28-17.26Q2.28-23.33 5.52-27.89L5.52-27.89Q7.73-30.99 10.84-32.31Q13.94-33.62 18.98-33.62L18.98-33.62L31.96-33.62L31.96-26.44L19.67-26.44Q15.88-26.44 14.36-25.16Q12.84-23.88 12.49-20.43L12.49-20.43Z" transform="translate(62.742988800000006 59.2971136)"></path><path fill="rgb(25, 25, 25)" d="M16.36-20.43L27.68-20.43Q27.68-23.95 26.27-25.20Q24.85-26.44 20.64-26.44L20.64-26.44L5.04-26.44L5.04-33.62L20.64-33.62Q24.85-33.62 26.44-33.45Q28.03-33.27 29.68-32.79L29.68-32.79Q37.35-29.89 36.93-18.91L36.93-18.91L36.93 0L17.46 0Q12.22 0 10.22-0.31Q8.21-0.62 6.70-1.59L6.70-1.59Q2.62-4.35 2.62-9.94L2.62-9.94Q2.62-13.32 4.25-15.98Q5.87-18.64 8.56-19.60L8.56-19.60Q10.91-20.43 16.36-20.43L16.36-20.43ZM27.68-7.18L27.68-13.25L17.05-13.25L15.46-13.25Q13.88-13.25 12.94-12.43Q12.01-11.60 12.01-10.15L12.01-10.15Q12.01-8.56 13.15-7.87Q14.29-7.18 17.05-7.18L17.05-7.18L27.68-7.18Z" transform="translate(103.74140160000002 59.2971136)"></path><path fill="rgb(25, 25, 25)" d="M1.10-33.62L6.97-33.62L6.97-46.04L16.22-46.04L16.22-33.62L24.78-33.62L24.78-26.44L16.22-26.44L16.22-14.22Q16.22-9.94 16.98-8.84L16.98-8.84Q18.15-7.18 21.12-7.18L21.12-7.18L24.78-7.18L24.78 0L18.09 0Q12.08 0 9.53-2.90Q6.97-5.80 6.97-12.63L6.97-12.63L6.97-26.44L1.10-26.44L1.10-33.62Z" transform="translate(150.81448960000003 59.2971136)"></path><path fill="rgb(25, 25, 25)" d="M4.49-46.04L13.74-46.04L13.74-33.62L23.19-33.62Q27.41-33.62 29.79-32.96Q32.17-32.31 33.82-30.65L33.82-30.65Q37.00-27.75 37.00-20.92L37.00-20.92L37.00 0L27.75 0L27.75-19.12Q27.75-21.81 27.51-22.95Q27.27-24.09 26.51-24.92L26.51-24.92Q25.13-26.37 21.26-26.44L21.26-26.44L13.74-26.44L13.74 0L4.49 0L4.49-46.04Z" transform="translate(183.39119360000004 59.2971136)"></path><path fill="rgb(25, 25, 25)" d="M12.49-20.43L31.96-20.43L31.96-13.25L12.49-13.25Q12.77-9.94 14.63-8.56Q16.50-7.18 20.71-7.18L20.71-7.18L31.96-7.18L31.96 0L19.67 0Q15.67 0 13.15-0.72Q10.63-1.45 8.42-3.11L8.42-3.11Q2.28-7.87 2.28-17.26L2.28-17.26Q2.28-23.33 5.52-27.89L5.52-27.89Q7.73-30.99 10.84-32.31Q13.94-33.62 18.98-33.62L18.98-33.62L31.96-33.62L31.96-26.44L19.67-26.44Q15.88-26.44 14.36-25.16Q12.84-23.88 12.49-20.43L12.49-20.43Z" transform="translate(230.53331200000002 59.2971136)"></path><path fill="rgb(25, 25, 25)" d="M4.49 0L4.49-33.62L18.15-33.62Q22.37-33.62 24.68-33.03Q26.99-32.44 28.51-31.06L28.51-31.06Q30.03-29.68 30.65-27.61Q31.27-25.54 31.27-21.68L31.27-21.68L31.27-18.43L22.37-18.43L22.37-20.23Q22.37-23.82 21.12-25.13Q19.88-26.44 16.36-26.44L16.36-26.44L13.74-26.44L13.74 0L4.49 0Z" transform="translate(271.5317248 59.2971136)"></path></g></svg>