<?xml version="1.0" standalone="no"?><!DOCTYPE svg PUBLIC "-//W3C//DTD SVG 1.1//EN" "http://www.w3.org/Graphics/SVG/1.1/DTD/svg11.dtd"><svg t="1580710328781" class="icon" viewBox="0 0 1024 1024" version="1.1" xmlns="http://www.w3.org/2000/svg" p-id="6007" xmlns:xlink="http://www.w3.org/1999/xlink" width="200" height="200"><defs><style type="text/css"></style></defs><path d="M151.703704 512.853333l0.663703 188.965926c0 7.49037 5.12 11.757037 11.472593 9.671111l159.383704-54.139259c6.257778-2.180741 11.377778-9.955556 11.377777-17.351111l-0.663703-188.965926c0-7.49037-5.12-11.757037-11.472593-9.671111L163.081481 495.502222c-6.352593 2.085926-11.472593 9.860741-11.377777 17.351111M152.367407 269.653333l0.663704 188.965926c0 7.49037 5.12 11.757037 11.472593 9.671111l159.383703-54.139259c6.257778-2.180741 11.377778-9.955556 11.377778-17.351111l-0.663704-188.965926c0-7.49037-5.12-11.757037-11.472592-9.671111l-159.383704 54.139259c-6.352593 2.085926-11.377778 9.860741-11.377778 17.351111M356.314074 443.259259l0.663704 188.965926c0 7.49037 5.12 11.757037 11.472592 9.671111l159.383704-54.139259c6.257778-2.180741 11.377778-9.955556 11.377778-17.351111l-0.663704-188.965926c0-7.49037-5.12-11.757037-11.472592-9.671111l-159.383704 54.139259c-6.352593 2.085926-11.377778 9.860741-11.377778 17.351111M356.977778 200.059259l0.663703 188.965926c0 7.49037 5.12 11.757037 11.472593 9.671111l159.383704-54.139259c6.257778-2.180741 11.377778-9.955556 11.377778-17.351111l-0.663704-188.965926c0-7.49037-5.12-11.757037-11.472593-9.671111l-159.383703 54.139259c-6.257778 2.180741-11.377778 9.955556-11.377778 17.351111" p-id="6008" fill="#d4237a"></path><path d="M340.954074 827.164444l130.37037 66.465186c5.12 2.654815 14.411852 3.034074 20.66963 0.853333l159.004445-54.044444c6.257778-2.085926 7.205926-5.973333 2.085925-8.628149l-130.37037-66.465185c-5.12-2.654815-14.411852-3.034074-20.66963-0.853333l-159.004444 54.044444c-6.352593 2.085926-7.300741 5.973333-2.085926 8.628148M174.933333 741.357037L305.303704 807.822222c5.12 2.654815 14.411852 3.034074 20.669629 0.853334l159.004445-54.044445c6.257778-2.085926 7.205926-5.973333 2.085926-8.628148l-130.370371-66.465185c-5.12-2.654815-14.411852-3.034074-20.669629-0.853334l-159.004445 54.044445c-6.257778 2.085926-7.205926 5.973333-2.085926 8.628148M545.09037 757.76l130.370371 66.465185c5.12 2.654815 14.411852 3.034074 20.669629 0.853334l159.004445-54.044445c6.257778-2.085926 7.205926-5.973333 2.085926-8.628148L726.85037 695.940741c-5.12-2.654815-14.411852-3.034074-20.669629-0.853334l-159.004445 54.044445c-6.352593 2.180741-7.300741 5.973333-2.085926 8.628148M379.06963 671.952593l130.37037 66.465185c5.12 2.654815 14.411852 3.034074 20.66963 0.853333l159.004444-54.044444c6.257778-2.085926 7.205926-5.973333 2.085926-8.628148l-130.37037-66.465186c-5.12-2.654815-14.411852-3.034074-20.66963-0.853333l-159.004444 54.044444c-6.257778 2.085926-7.205926 5.973333-2.085926 8.628149" p-id="6009" fill="#d4237a"></path><path d="M705.042963 201.860741l-130.56-66.465185c-5.12-2.654815-9.291852 1.232593-9.291852 8.533333l0.663704 185.931852c0 7.300741 4.171852 15.454815 9.386666 18.014815L705.706667 414.340741c5.12 2.654815 9.291852-1.232593 9.291852-8.533334l-0.663704-185.931851c0.094815-7.300741-4.171852-15.36-9.291852-18.014815M872.675556 288.995556l-130.56-66.465186c-5.12-2.654815-9.291852 1.232593-9.291852 8.533334l0.663703 185.931852c0 7.300741 4.171852 15.454815 9.386667 18.014814L873.434074 501.57037c5.12 2.654815 9.291852-1.232593 9.291852-8.533333l-0.663704-185.931852c0-7.395556-4.171852-15.454815-9.386666-18.109629M705.801481 440.604444l-130.56-66.465185c-5.12-2.654815-9.291852 1.232593-9.291851 8.533334l0.663703 185.931851c0 7.300741 4.171852 15.454815 9.386667 18.014815l130.56 66.465185c5.12 2.654815 9.291852-1.232593 9.291852-8.533333l-0.663704-185.931852c0-7.300741-4.171852-15.36-9.386667-18.014815M873.528889 527.834074l-130.56-66.465185c-5.12-2.654815-9.291852 1.232593-9.291852 8.533333l0.663704 185.931852c0 7.300741 4.171852 15.454815 9.386666 18.014815L874.192593 740.314074c5.12 2.654815 9.291852-1.232593 9.291851-8.533333l-0.663703-185.931852c0-7.300741-4.171852-15.36-9.291852-18.014815" p-id="6010" fill="#d4237a"></path></svg>